<svg version="1.1" xmlns="http://www.w3.org/2000/svg" viewBox="0 0 1097.5 383.5" width="2195" height="767">
  <!-- svg-source:excalidraw -->
  
  <defs>
    <style class="style-fonts">
      @font-face {
        font-family: "Virgil";
        src: url("https://excalidraw.com/Virgil.woff2");
      }
      @font-face {
        font-family: "Cascadia";
        src: url("https://excalidraw.com/Cascadia.woff2");
      }
      @font-face {
        font-family: "Assistant";
        src: url("https://excalidraw.com/Assistant-Regular.woff2");
      }
    </style>
    
  </defs>
  <g stroke-linecap="round" transform="translate(608.5 48.5) rotate(0 239.5 162.5)"><path d="M32 0 C143.34 -1.44, 256.32 -0.45, 447 0 M32 0 C189.67 0.56, 347.04 0.6, 447 0 M447 0 C469.02 1.45, 478.91 10.61, 479 32 M447 0 C466.42 0.6, 477.3 10.88, 479 32 M479 32 C476.58 118.16, 476.24 204.11, 479 293 M479 32 C477.71 85.8, 477.98 140.76, 479 293 M479 293 C478.15 313.76, 468.21 323.94, 447 325 M479 293 C480.62 312.7, 469.78 326.92, 447 325 M447 325 C314.04 323.85, 179.64 323.6, 32 325 M447 325 C340.66 327.71, 234.7 327.36, 32 325 M32 325 C9.94 326.46, 0.61 314.8, 0 293 M32 325 C12.13 324.79, 1.17 313.06, 0 293 M0 293 C1.25 227.77, 1.53 160.02, 0 32 M0 293 C0.23 206.68, 0.36 119.82, 0 32 M0 32 C-0.72 12.62, 9.08 1.9, 32 0 M0 32 C-1.48 12.03, 10.1 -1.28, 32 0" stroke="#1e1e1e" stroke-width="2" fill="none"></path></g><g stroke-linecap="round" transform="translate(10 53) rotate(0 239.5 158.5)"><path d="M32 0 C152.18 -1.64, 272.19 -0.07, 447 0 M32 0 C145.32 0.41, 258 0.91, 447 0 M447 0 C470.23 -1.36, 477.84 10.56, 479 32 M447 0 C470.05 1.71, 478.36 9.22, 479 32 M479 32 C478.26 125.66, 479.62 221.58, 479 285 M479 32 C480.98 125.99, 481.45 220.8, 479 285 M479 285 C480.86 307.64, 467.49 318.44, 447 317 M479 285 C479.36 307.42, 470.15 317.81, 447 317 M447 317 C292.64 316.82, 135.82 317.61, 32 317 M447 317 C311.93 318.03, 175.83 317.73, 32 317 M32 317 C11.14 316.97, 1.05 304.42, 0 285 M32 317 C9.83 317.43, 1.98 307.02, 0 285 M0 285 C0.43 229.83, 1.15 176.51, 0 32 M0 285 C0 203.64, -0.61 121.59, 0 32 M0 32 C-1.78 11.38, 12.46 -0.43, 32 0 M0 32 C-1.16 10.23, 11.16 0.92, 32 0" stroke="#1e1e1e" stroke-width="2" fill="none"></path></g><g mask="url(#mask-kjHGbsX4mBnECNaVCdmxC)" stroke-linecap="round"><g transform="translate(495.5 188.5021617356216) rotate(0 51.5 0.9962627427267421)"><path d="M0.11 1.18 C17.22 1.72, 84.49 2.58, 101.84 2.52 M-1.28 0.75 C16.25 1, 86.38 0.54, 103.94 0.67" stroke="#2f9e44" stroke-width="2" fill="none"></path></g><g transform="translate(495.5 188.5021617356216) rotate(0 51.5 0.9962627427267421)"><path d="M105.91 1.25 L88.74 7.26 L91.89 -6.65 L104.15 -1.29" stroke="none" stroke-width="0" fill="#2f9e44" fill-rule="evenodd"></path><path d="M103.94 0.67 C102.23 0.7, 98.27 5.12, 90.35 7.02 M103.94 0.67 C101.68 1.79, 99.04 2.74, 90.35 7.02 M90.35 7.02 C89.47 3.09, 89.07 0.33, 90.35 -5.66 M90.35 7.02 C90 4.65, 90.2 1.38, 90.35 -5.66 M90.35 -5.66 C94.58 -4.65, 97.54 -2.47, 103.94 0.67 M90.35 -5.66 C94.25 -4.38, 98.45 -1.67, 103.94 0.67 M103.94 0.67 C103.94 0.67, 103.94 0.67, 103.94 0.67 M103.94 0.67 C103.94 0.67, 103.94 0.67, 103.94 0.67" stroke="#2f9e44" stroke-width="2" fill="none"></path></g></g><mask id="mask-kjHGbsX4mBnECNaVCdmxC"><rect x="0" y="0" fill="#fff" width="698.5" height="290.4946872210751"></rect><rect x="529.3166675567627" y="176.99842447834834" fill="#000" width="35.36666488647461" height="25" opacity="1"></rect></mask><g transform="translate(529.3166675567627 176.99842447834834) rotate(0 17.511969038527468 13.088933229182487)"><text x="17.683332443237305" y="17.52" font-family="Virgil, Segoe UI Emoji" font-size="20px" fill="#2f9e44" text-anchor="middle" style="white-space: pre;" direction="ltr" dominant-baseline="alphabetic">SSH</text></g><g stroke-linecap="round" transform="translate(795.5 71.5) rotate(0 89.5 30)"><path d="M15 0 C50.6 -0.63, 88.35 -0.03, 164 0 M15 0 C49.19 1.09, 81.76 -0.02, 164 0 M164 0 C175.61 -1.16, 178.36 4.14, 179 15 M164 0 C174.24 -0.38, 181.26 3.25, 179 15 M179 15 C179.5 23.15, 179.66 30.36, 179 45 M179 15 C179.77 21.05, 180.13 29.57, 179 45 M179 45 C180.7 54.04, 174.55 59.15, 164 60 M179 45 C180.03 55.69, 173.5 60.71, 164 60 M164 60 C111.72 57.6, 63.81 57.74, 15 60 M164 60 C133.66 61.8, 101.47 61.07, 15 60 M15 60 C4.67 59.66, 1.8 53.86, 0 45 M15 60 C4.5 60.18, 0.6 54.17, 0 45 M0 45 C0.71 33.09, 0.75 23.36, 0 15 M0 45 C-0.01 35.79, -0.39 27.93, 0 15 M0 15 C-1.41 4.98, 5.34 1.87, 15 0 M0 15 C-2.08 5.78, 5.12 -0.03, 15 0" stroke="#1e1e1e" stroke-width="2" fill="none"></path></g><g transform="translate(824.3333320617676 89) rotate(0 60.66666793823242 12.5)"><text x="60.66666793823242" y="17.52" font-family="Virgil, Segoe UI Emoji" font-size="20px" fill="#1e1e1e" text-anchor="middle" style="white-space: pre;" direction="ltr" dominant-baseline="alphabetic">udp-over-tcp</text></g><g stroke-linecap="round" transform="translate(126 77.5) rotate(0 89.5 30)"><path d="M15 0 C64.9 -0.91, 110.93 1, 164 0 M15 0 C51.73 0.49, 88.76 -0.57, 164 0 M164 0 C175.09 1.32, 177.6 6.77, 179 15 M164 0 C173.99 0.01, 180.83 5.72, 179 15 M179 15 C179.54 22.92, 180.21 30.34, 179 45 M179 15 C179.73 25.61, 179.82 35.4, 179 45 M179 45 C179.13 56.67, 175.05 61.81, 164 60 M179 45 C176.99 55.62, 172.53 59.98, 164 60 M164 60 C119.59 60.98, 78.19 61.81, 15 60 M164 60 C117.44 61.75, 71.73 60.13, 15 60 M15 60 C4.17 59.29, -0.82 56.48, 0 45 M15 60 C4.42 60.93, 1.67 55.32, 0 45 M0 45 C-1.58 35.17, 0.7 22.04, 0 15 M0 45 C0.59 35.52, 1.05 26.23, 0 15 M0 15 C-1.05 5, 3.51 -1.74, 15 0 M0 15 C0.7 5.48, 3.4 -0.37, 15 0" stroke="#1e1e1e" stroke-width="2" fill="none"></path></g><g transform="translate(154.83333206176758 95) rotate(0 60.66666793823242 12.5)"><text x="60.66666793823242" y="17.52" font-family="Virgil, Segoe UI Emoji" font-size="20px" fill="#1e1e1e" text-anchor="middle" style="white-space: pre;" direction="ltr" dominant-baseline="alphabetic">udp-over-tcp</text></g><g mask="url(#mask-W57y_HD_iJzihDP91T0sC)" stroke-linecap="round"><g transform="translate(315.347811366048 134.36471906747158) rotate(0 46.59990933360953 15.556369473588575)"><path d="M0.47 0.52 C16.08 5.78, 77.01 26.94, 92.53 32.06 M-0.75 -0.25 C15.36 4.64, 79.26 24.95, 94.89 30.44" stroke="#1971c2" stroke-width="2" fill="none"></path></g><g transform="translate(315.347811366048 134.36471906747158) rotate(0 46.59990933360953 15.556369473588575)"><path d="M95.31 29.88 L81.93 31.46 L82.98 18.89 L95.25 30.66" stroke="none" stroke-width="0" fill="#1971c2" fill-rule="evenodd"></path><path d="M94.89 30.44 C92.5 30.01, 89.98 31.67, 79.99 32.18 M94.89 30.44 C90.67 31.51, 86.01 31.18, 79.99 32.18 M79.99 32.18 C80.54 27.92, 82.45 23.91, 83.98 20.14 M79.99 32.18 C80.85 30.22, 81.76 27.53, 83.98 20.14 M83.98 20.14 C87.48 23.34, 92 26.32, 94.89 30.44 M83.98 20.14 C87.21 23.19, 89.47 24.68, 94.89 30.44 M94.89 30.44 C94.89 30.44, 94.89 30.44, 94.89 30.44 M94.89 30.44 C94.89 30.44, 94.89 30.44, 94.89 30.44" stroke="#1971c2" stroke-width="2" fill="none"></path></g></g><mask id="mask-W57y_HD_iJzihDP91T0sC"><rect x="0" y="0" fill="#fff" width="508.54763003326707" height="265.47745801464873"></rect><rect x="340.8643867305414" y="137.42108854106016" fill="#000" width="42.16666793823242" height="25" opacity="1"></rect></mask><g transform="translate(340.86438673054136 137.42108854106016) rotate(0 21.55376152841373 12.850837556989859)"><text x="21.08333396911621" y="17.52" font-family="Virgil, Segoe UI Emoji" font-size="20px" fill="#1971c2" text-anchor="middle" style="white-space: pre;" direction="ltr" dominant-baseline="alphabetic">TCP</text></g><g mask="url(#mask-UobvSZBXRJ9YCf8RDcku8)" stroke-linecap="round"><g transform="translate(687.4557531275177 167.71255660705822) rotate(0 50.5369096565924 -19.5355243143309)"><path d="M-0.47 -1.01 C16.11 -7.67, 83.14 -33.77, 100.09 -40.16 M1.49 1.07 C18.37 -5.46, 85.77 -32.66, 102.29 -39.19" stroke="#1971c2" stroke-width="2" fill="none"></path></g><g transform="translate(687.4557531275177 167.71255660705822) rotate(0 50.5369096565924 -19.5355243143309)"><path d="M100.84 -40.34 L92.53 -28.95 L88.76 -42 L101.83 -39.85" stroke="none" stroke-width="0" fill="#1971c2" fill-rule="evenodd"></path><path d="M102.29 -39.19 C97.37 -36.58, 93.63 -31.22, 92.02 -28.26 M102.29 -39.19 C99.53 -36.04, 96.56 -33.38, 92.02 -28.26 M92.02 -28.26 C89.87 -31.48, 89.66 -33.48, 87.32 -40.03 M92.02 -28.26 C89.95 -32.7, 89.21 -36.16, 87.32 -40.03 M87.32 -40.03 C90.35 -39.31, 95.29 -39.57, 102.29 -39.19 M87.32 -40.03 C90.14 -39.36, 94.1 -39.57, 102.29 -39.19 M102.29 -39.19 C102.29 -39.19, 102.29 -39.19, 102.29 -39.19 M102.29 -39.19 C102.29 -39.19, 102.29 -39.19, 102.29 -39.19" stroke="#1971c2" stroke-width="2" fill="none"></path></g></g><mask id="mask-UobvSZBXRJ9YCf8RDcku8"><rect x="0" y="0" fill="#fff" width="888.5295724407025" height="306.78360523572"></rect><rect x="716.9093288149938" y="135.6770322927273" fill="#000" width="42.16666793823242" height="25" opacity="1"></rect></mask><g transform="translate(716.9093288149937 135.6770322927273) rotate(0 21.459905487280423 12.492527045328188)"><text x="21.08333396911621" y="17.52" font-family="Virgil, Segoe UI Emoji" font-size="20px" fill="#1971c2" text-anchor="middle" style="white-space: pre;" direction="ltr" dominant-baseline="alphabetic">TCP</text></g><g stroke-linecap="round" transform="translate(419.5 166.5) rotate(0 35 25)"><path d="M12.5 0 C21.87 -0.67, 30.79 0.65, 57.5 0 M57.5 0 C65.59 -1.09, 69.74 5.63, 70 12.5 M70 12.5 C68.02 19.19, 69.58 31.04, 70 37.5 M70 37.5 C71.01 47.62, 64.2 48.22, 57.5 50 M57.5 50 C44.62 49.77, 31.36 48.98, 12.5 50 M12.5 50 C2.98 50.92, -0.34 45.92, 0 37.5 M0 37.5 C1.44 31.08, -1.52 23.58, 0 12.5 M0 12.5 C-1.2 3.4, 4.65 0.55, 12.5 0" stroke="#1971c2" stroke-width="2.5" fill="none" stroke-dasharray="1.5 8"></path></g><g transform="translate(428.4333324432373 179) rotate(0 26.066667556762695 12.5)"><text x="26.066667556762695" y="17.52" font-family="Virgil, Segoe UI Emoji" font-size="20px" fill="#1971c2" text-anchor="middle" style="white-space: pre;" direction="ltr" dominant-baseline="alphabetic">7878</text></g><g stroke-linecap="round" transform="translate(608.5 167.5) rotate(0 35 25)"><path d="M12.5 0 C27.86 -0.03, 43.69 -1.53, 57.5 0 M57.5 0 C67.75 0.44, 68.39 2.7, 70 12.5 M70 12.5 C69.34 21.48, 69.71 28.89, 70 37.5 M70 37.5 C71.4 44.86, 64.56 49.76, 57.5 50 M57.5 50 C49.17 51.18, 36.3 48.82, 12.5 50 M12.5 50 C2.6 51.27, 1.94 46.71, 0 37.5 M0 37.5 C-1.91 29.79, -1.41 26.35, 0 12.5 M0 12.5 C-0.28 4.78, 5.04 -1.42, 12.5 0" stroke="#1971c2" stroke-width="2.5" fill="none" stroke-dasharray="1.5 8"></path></g><g transform="translate(617.4333324432373 180) rotate(0 26.066667556762695 12.5)"><text x="26.066667556762695" y="17.52" font-family="Virgil, Segoe UI Emoji" font-size="20px" fill="#1971c2" text-anchor="middle" style="white-space: pre;" direction="ltr" dominant-baseline="alphabetic">7878</text></g><g stroke-linecap="round" transform="translate(161.5 138.5) rotate(0 37.5 17.5)"><path d="M8.75 0 C24.87 -0.69, 38.17 -0.67, 66.25 0 M66.25 0 C70.29 -0.99, 73.49 4.41, 75 8.75 M75 8.75 C73.84 13.95, 74.13 18.82, 75 26.25 M75 26.25 C74.07 31.5, 73.24 34.8, 66.25 35 M66.25 35 C53.76 36.1, 38.75 33.78, 8.75 35 M8.75 35 C3.53 33.73, -1.97 33.94, 0 26.25 M0 26.25 C1.33 23.68, 0.81 18.81, 0 8.75 M0 8.75 C-1.33 3.99, 0.94 -1.49, 8.75 0" stroke="#f08c00" stroke-width="2.5" fill="none" stroke-dasharray="1.5 8"></path></g><g transform="translate(191.73333311080933 143.5) rotate(0 7.266666889190674 12.5)"><text x="7.266666889190674" y="17.52" font-family="Virgil, Segoe UI Emoji" font-size="20px" fill="#f08c00" text-anchor="middle" style="white-space: pre;" direction="ltr" dominant-baseline="alphabetic">B</text></g><g transform="translate(227.5 14.5) rotate(0 8.366666793823242 17.5)"><text x="0" y="24.528" font-family="Virgil, Segoe UI Emoji" font-size="28px" fill="#1e1e1e" text-anchor="start" style="white-space: pre;" direction="ltr" dominant-baseline="alphabetic">X</text></g><g transform="translate(830.1333332061768 10) rotate(0 7.2166666984558105 17.5)"><text x="0" y="24.528" font-family="Virgil, Segoe UI Emoji" font-size="28px" fill="#1e1e1e" text-anchor="start" style="white-space: pre;" direction="ltr" dominant-baseline="alphabetic">Y</text></g><g stroke-linecap="round" transform="translate(883 132) rotate(0 37.5 17.5)"><path d="M8.75 0 C29.52 1.31, 48.23 1.42, 66.25 0 M66.25 0 C72.37 0.17, 75.97 4.37, 75 8.75 M75 8.75 C75.91 14.06, 73.4 15.32, 75 26.25 M75 26.25 C75.49 30.75, 72.5 33.09, 66.25 35 M66.25 35 C45.21 34.42, 27.8 35.12, 8.75 35 M8.75 35 C1.72 35.81, -0.9 31.16, 0 26.25 M0 26.25 C0.77 21.55, -0.93 17.73, 0 8.75 M0 8.75 C1.07 4.83, 0.95 0.36, 8.75 0" stroke="#f08c00" stroke-width="2.5" fill="none" stroke-dasharray="1.5 8"></path></g><g transform="translate(913.9333333969116 137) rotate(0 6.566666603088379 12.5)"><text x="6.566666603088379" y="17.52" font-family="Virgil, Segoe UI Emoji" font-size="20px" fill="#f08c00" text-anchor="middle" style="white-space: pre;" direction="ltr" dominant-baseline="alphabetic">A</text></g><g stroke-linecap="round" transform="translate(46.5 276.5) rotate(0 86.5 30.5)"><path d="M15.25 0 C64.67 0.24, 115.87 -0.24, 157.75 0 M15.25 0 C47.82 -1.71, 82.93 -1.47, 157.75 0 M157.75 0 C166.65 0.74, 174.27 6, 173 15.25 M157.75 0 C166.18 0.66, 171.39 3.33, 173 15.25 M173 15.25 C173.01 24.73, 175.2 38.57, 173 45.75 M173 15.25 C173.29 26.67, 172.41 37.9, 173 45.75 M173 45.75 C173.85 54.83, 166.14 60.58, 157.75 61 M173 45.75 C172.09 55.14, 169.62 61.74, 157.75 61 M157.75 61 C118.64 62.47, 79.52 62.65, 15.25 61 M157.75 61 C102.23 60.29, 46.95 61.24, 15.25 61 M15.25 61 C3.25 59.38, 0.63 54.98, 0 45.75 M15.25 61 C5.34 59, 2.03 55.36, 0 45.75 M0 45.75 C-0.36 33.84, 0.34 22.76, 0 15.25 M0 45.75 C-0.07 35.74, 0.43 27.01, 0 15.25 M0 15.25 C1.52 6.5, 5.54 -1.98, 15.25 0 M0 15.25 C-0.96 6.03, 6.58 2.03, 15.25 0" stroke="#e03131" stroke-width="2" fill="none"></path></g><g transform="translate(82.03333282470703 294.5) rotate(0 50.96666717529297 12.5)"><text x="50.96666717529297" y="17.52" font-family="Virgil, Segoe UI Emoji" font-size="20px" fill="#e03131" text-anchor="middle" style="white-space: pre;" direction="ltr" dominant-baseline="alphabetic">Application</text></g><g stroke-linecap="round" transform="translate(879 281) rotate(0 86.5 30.5)"><path d="M15.25 0 C51.14 -1.61, 89.37 -0.27, 157.75 0 M15.25 0 C68.06 -0.24, 122.42 -0.15, 157.75 0 M157.75 0 C166.15 -0.54, 173.81 4.88, 173 15.25 M157.75 0 C165.91 -1.09, 175.06 3.59, 173 15.25 M173 15.25 C172.74 23.56, 174.85 30.09, 173 45.75 M173 15.25 C172.87 22.88, 173.49 32.96, 173 45.75 M173 45.75 C171.97 54.52, 169.68 62.53, 157.75 61 M173 45.75 C171.61 54.16, 169.54 59.78, 157.75 61 M157.75 61 C115.61 61.45, 76.78 63.28, 15.25 61 M157.75 61 C103.87 60.87, 48.38 60.09, 15.25 61 M15.25 61 C3.66 62.72, 0.26 56.28, 0 45.75 M15.25 61 C4.69 62.56, -0.03 57.78, 0 45.75 M0 45.75 C-0.67 37.3, -1.93 26.31, 0 15.25 M0 45.75 C0.9 35.39, 1.01 26.84, 0 15.25 M0 15.25 C-1.88 6.62, 4.72 -0.82, 15.25 0 M0 15.25 C1.22 4.2, 4.05 -0.81, 15.25 0" stroke="#e03131" stroke-width="2" fill="none"></path></g><g transform="translate(914.533332824707 299) rotate(0 50.96666717529297 12.5)"><text x="50.96666717529297" y="17.52" font-family="Virgil, Segoe UI Emoji" font-size="20px" fill="#e03131" text-anchor="middle" style="white-space: pre;" direction="ltr" dominant-baseline="alphabetic">Application</text></g><g stroke-linecap="round" transform="translate(116 238) rotate(0 37.5 18.5)"><path d="M9.25 0 C22.2 -0.62, 31.46 1.39, 65.75 0 M65.75 0 C71.25 0.48, 75.12 1.48, 75 9.25 M75 9.25 C75.99 15.07, 75.82 20.68, 75 27.75 M75 27.75 C73.8 35.8, 73.31 36.56, 65.75 37 M65.75 37 C44.28 37.03, 22.49 37.88, 9.25 37 M9.25 37 C3.64 36.41, 0.12 33.25, 0 27.75 M0 27.75 C0.35 23.88, 0.24 19.94, 0 9.25 M0 9.25 C0.52 1.3, 1.13 1.83, 9.25 0" stroke="#f08c00" stroke-width="2.5" fill="none" stroke-dasharray="1.5 8"></path></g><g transform="translate(146.93333339691162 244) rotate(0 6.566666603088379 12.5)"><text x="6.566666603088379" y="17.52" font-family="Virgil, Segoe UI Emoji" font-size="20px" fill="#f08c00" text-anchor="middle" style="white-space: pre;" direction="ltr" dominant-baseline="alphabetic">A</text></g><g stroke-linecap="round" transform="translate(907 244) rotate(0 37.5 17.5)"><path d="M8.75 0 C28.31 -0.74, 45.08 -0.36, 66.25 0 M66.25 0 C72.63 0.17, 73.42 1.78, 75 8.75 M75 8.75 C75.36 13.15, 76.17 15.41, 75 26.25 M75 26.25 C73.31 32.25, 71.97 36.61, 66.25 35 M66.25 35 C49.68 36.84, 36.36 35.98, 8.75 35 M8.75 35 C2.47 35.22, -1.16 31.94, 0 26.25 M0 26.25 C0.98 20.82, -0.13 14.61, 0 8.75 M0 8.75 C-1.47 3.71, 1.73 0.22, 8.75 0" stroke="#f08c00" stroke-width="2.5" fill="none" stroke-dasharray="1.5 8"></path></g><g transform="translate(937.2333331108093 249) rotate(0 7.266666889190674 12.5)"><text x="7.266666889190674" y="17.52" font-family="Virgil, Segoe UI Emoji" font-size="20px" fill="#f08c00" text-anchor="middle" style="white-space: pre;" direction="ltr" dominant-baseline="alphabetic">B</text></g><g stroke-linecap="round"><g transform="translate(186.5 231.5) rotate(0 18.5 -25.5)"><path d="M-0.25 1.03 C5.87 -7.27, 29.7 -41.3, 35.96 -50 M1.83 0.53 C8.36 -8.07, 32.32 -43.19, 38.13 -51.59" stroke="#f08c00" stroke-width="1" fill="none"></path></g><g transform="translate(186.5 231.5) rotate(0 18.5 -25.5)"><path d="M38.09 -53.44 L36.32 -37.62 L24.52 -43.03 L38.28 -50.11" stroke="none" stroke-width="0" fill="#f08c00" fill-rule="evenodd"></path><path d="M38.13 -51.59 C38.8 -49.33, 38.17 -44.07, 35.65 -36.8 M38.13 -51.59 C38.05 -47.52, 36.09 -43.37, 35.65 -36.8 M35.65 -36.8 C33.89 -37.26, 31.22 -41.04, 25.21 -43.98 M35.65 -36.8 C33.79 -38.89, 30.93 -40.3, 25.21 -43.98 M25.21 -43.98 C30.69 -46.65, 36.26 -50.49, 38.13 -51.59 M25.21 -43.98 C29.62 -46.28, 33.64 -49.09, 38.13 -51.59 M38.13 -51.59 C38.13 -51.59, 38.13 -51.59, 38.13 -51.59 M38.13 -51.59 C38.13 -51.59, 38.13 -51.59, 38.13 -51.59" stroke="#f08c00" stroke-width="1" fill="none"></path></g></g><mask></mask><g stroke-linecap="round"><g transform="translate(159.5574557911046 183.77849240941924) rotate(0 -17 23)"><path d="M-0.52 0.67 C-6.33 8.36, -28.86 38.37, -34.5 45.77 M1.41 -0.03 C-4.63 7.88, -29.58 39.53, -35.71 47.18" stroke="#f08c00" stroke-width="1" fill="none"></path></g><g transform="translate(159.5574557911046 183.77849240941924) rotate(0 -17 23)"><path d="M-34.11 45.94 L-31.32 31.25 L-20.62 41.04 L-34.86 46.58" stroke="none" stroke-width="0" fill="#f08c00" fill-rule="evenodd"></path><path d="M-35.71 47.18 C-33.68 41.74, -33.66 37.06, -32.23 32.59 M-35.71 47.18 C-34.84 44.27, -33.59 40.27, -32.23 32.59 M-32.23 32.59 C-29.42 36.02, -25.93 38.8, -22.3 40.47 M-32.23 32.59 C-29.44 34.29, -25.9 37.05, -22.3 40.47 M-22.3 40.47 C-26.65 41.98, -28.06 43.39, -35.71 47.18 M-22.3 40.47 C-26.01 42.49, -31.07 45.1, -35.71 47.18 M-35.71 47.18 C-35.71 47.18, -35.71 47.18, -35.71 47.18 M-35.71 47.18 C-35.71 47.18, -35.71 47.18, -35.71 47.18" stroke="#f08c00" stroke-width="1" fill="none"></path></g></g><mask></mask><g stroke-linecap="round"><g transform="translate(914.5574557911048 233.77849240941924) rotate(0 -12 -29)"><path d="M-0.17 1.07 C-4.16 -8.59, -20.25 -47.06, -24.08 -56.87 M-1.71 0.58 C-5.87 -8.87, -21.44 -48.91, -25.07 -58.4" stroke="#f08c00" stroke-width="1" fill="none"></path></g><g transform="translate(914.5574557911048 233.77849240941924) rotate(0 -12 -29)"><path d="M-23.71 -58.78 L-14.71 -48.38 L-26.48 -42.89 L-26.6 -59.91" stroke="none" stroke-width="0" fill="#f08c00" fill-rule="evenodd"></path><path d="M-25.07 -58.4 C-20.5 -55.47, -17.28 -51.31, -14.25 -48.01 M-25.07 -58.4 C-20.91 -55.87, -17.71 -51.88, -14.25 -48.01 M-14.25 -48.01 C-17.39 -45.58, -22.73 -44.48, -26.08 -43.44 M-14.25 -48.01 C-19.42 -45.69, -23.69 -44.91, -26.08 -43.44 M-26.08 -43.44 C-25.8 -49.85, -24.91 -55.28, -25.07 -58.4 M-26.08 -43.44 C-26.11 -47.33, -25.6 -51.63, -25.07 -58.4 M-25.07 -58.4 C-25.07 -58.4, -25.07 -58.4, -25.07 -58.4 M-25.07 -58.4 C-25.07 -58.4, -25.07 -58.4, -25.07 -58.4" stroke="#f08c00" stroke-width="1" fill="none"></path></g></g><mask></mask><g stroke-linecap="round"><g transform="translate(945.6503808492607 176.92397466985506) rotate(0 11 28.5)"><path d="M0.41 1.05 C4.12 10.52, 19.02 48.66, 22.82 57.91 M-0.83 0.56 C2.74 10.22, 18.32 46.75, 22.3 56.27" stroke="#f08c00" stroke-width="1" fill="none"></path></g><g transform="translate(945.6503808492607 176.92397466985506) rotate(0 11 28.5)"><path d="M21.14 56.89 L12.94 45.67 L21.71 42.95 L24.21 57.25" stroke="none" stroke-width="0" fill="#f08c00" fill-rule="evenodd"></path><path d="M22.3 56.27 C19.66 53.83, 15.61 50.79, 11.18 46.21 M22.3 56.27 C19.97 54.02, 16.03 51.15, 11.18 46.21 M11.18 46.21 C15.87 43.53, 19.83 42.46, 22.86 41.28 M11.18 46.21 C15.21 44.7, 19.44 42.66, 22.86 41.28 M22.86 41.28 C22.57 46.56, 21.84 49.02, 22.3 56.27 M22.86 41.28 C22.23 46.41, 21.72 53.17, 22.3 56.27 M22.3 56.27 C22.3 56.27, 22.3 56.27, 22.3 56.27 M22.3 56.27 C22.3 56.27, 22.3 56.27, 22.3 56.27" stroke="#f08c00" stroke-width="1" fill="none"></path></g></g><mask></mask><g transform="translate(153.5 193.5) rotate(0 21.549999237060547 12.5)"><text x="0" y="17.52" font-family="Virgil, Segoe UI Emoji" font-size="20px" fill="#f08c00" text-anchor="start" style="white-space: pre;" direction="ltr" dominant-baseline="alphabetic">UDP</text></g><g transform="translate(907.9500007629395 191) rotate(0 21.549999237060547 12.5)"><text x="0" y="17.52" font-family="Virgil, Segoe UI Emoji" font-size="20px" fill="#f08c00" text-anchor="start" style="white-space: pre;" direction="ltr" dominant-baseline="alphabetic">UDP</text></g><g transform="translate(262.03333282470703 264.5) rotate(0 100.46666717529297 40)"><text x="100.46666717529297" y="14.016" font-family="Virgil, Segoe UI Emoji" font-size="16px" fill="#1e1e1e" text-anchor="middle" style="white-space: pre;" direction="ltr" dominant-baseline="alphabetic">B here is effectively</text><text x="100.46666717529297" y="34.016" font-family="Virgil, Segoe UI Emoji" font-size="16px" fill="#1e1e1e" text-anchor="middle" style="white-space: pre;" direction="ltr" dominant-baseline="alphabetic">udp-over-tcp pretending</text><text x="100.46666717529297" y="54.016" font-family="Virgil, Segoe UI Emoji" font-size="16px" fill="#1e1e1e" text-anchor="middle" style="white-space: pre;" direction="ltr" dominant-baseline="alphabetic">to be Application on Y</text><text x="100.46666717529297" y="74.016" font-family="Virgil, Segoe UI Emoji" font-size="16px" fill="#1e1e1e" text-anchor="middle" style="white-space: pre;" direction="ltr" dominant-baseline="alphabetic">listening locally on port B</text></g><g stroke-linecap="round"><g transform="translate(237.5 175.5) rotate(0 56 40)"><path d="M0.81 -0.04 C19.23 13.3, 93.07 65.68, 111.65 79.17" stroke="#1e1e1e" stroke-width="4.5" fill="none" stroke-dasharray="1.5 10"></path></g></g><mask></mask><g stroke-linecap="round"><g transform="translate(900.7701566960664 249.4338758144528) rotate(0 -275 1)"><path d="M-0.54 -0.67 C-92.1 -0.13, -458.99 1.88, -550.47 2.14" stroke="#1e1e1e" stroke-width="4.5" fill="none" stroke-dasharray="1.5 10"></path></g></g><mask></mask></svg>